<svg xmlns="http://www.w3.org/2000/svg" role="img" aria-labelledby="banner-title banner-description" data-theme="living-archive" viewBox="0 0 1792 592"><title id="banner-title">pi-sessions — living conversation archive</title><desc id="banner-description">Layered conversation cards connect to a searchable timeline for browsing and restoring Pi sessions.</desc><defs><linearGradient id="sessions-bg" x1="0" x2="1" y1="0" y2="1"><stop stop-color="#180f18"/><stop offset=".6" stop-color="#100d16"/><stop offset="1" stop-color="#0b0c12"/></linearGradient><pattern id="sessions-grid" width="40" height="40" patternUnits="userSpaceOnUse"><path stroke="#ff8e9f" stroke-opacity=".045" d="M0 40 40 0"/></pattern><filter id="sessions-shadow" width="160%" height="160%" x="-30%" y="-30%"><feDropShadow dx="0" dy="10" flood-color="#000" flood-opacity=".45" stdDeviation="8"/></filter></defs><g id="background"><path fill="url(#sessions-bg)" d="M0 0h1792v592H0z"/><path fill="#ff8e9f" d="M0 0h18v592H0z"/><path fill="#64e7d4" d="M18 0h5v592h-5z"/></g><g id="grid"><path fill="url(#sessions-grid)" d="M24 0h1768v592H24z"/><path stroke="#ff8e9f" stroke-opacity=".12" d="M94 86h632M94 506h632"/></g><g id="artwork" font-family="'IBM Plex Mono',monospace"><path stroke="#59606c" stroke-width="2" d="M116 128v336"/><circle cx="116" cy="174" r="7" fill="#ff8e9f"/><circle cx="116" cy="296" r="7" fill="#64e7d4"/><circle cx="116" cy="418" r="7" fill="#ffca72"/><g filter="url(#sessions-shadow)"><rect width="430" height="112" x="176" y="116" fill="#211521" stroke="#764654" rx="7"/><rect width="52" height="52" x="202" y="142" fill="#ff8e9f" fill-opacity=".16" rx="4"/><path stroke="#ff8e9f" stroke-width="3" d="M216 158h24m-24 11h18m-18 11h21"/><text x="278" y="162" fill="#f6dce2" font-size="17">Refactor MCP transport</text><text x="278" y="192" fill="#9f8e98" font-size="13">12:42 · 38 messages · gpt-5</text></g><g filter="url(#sessions-shadow)"><rect width="460" height="112" x="202" y="248" fill="#14201f" stroke="#39776f" rx="7"/><rect width="52" height="52" x="228" y="274" fill="#64e7d4" fill-opacity=".14" rx="4"/><path stroke="#64e7d4" stroke-width="3" d="M242 290h24m-24 11h18m-18 11h21"/><text x="304" y="294" fill="#dcf7f2" font-size="17">Design extension banners</text><text x="304" y="324" fill="#8ba29e" font-size="13">TODAY · 16 messages · sonnet</text></g><g filter="url(#sessions-shadow)"><rect width="416" height="96" x="160" y="380" fill="#201b14" stroke="#75613d" rx="7"/><text x="190" y="420" fill="#f4e5c9" font-size="17">Search project history</text><text x="190" y="450" fill="#a29680" font-size="13">JUL 28 · 22 messages · gemini</text></g><path fill="none" stroke="#ff8e9f" stroke-width="2" d="M620 138h40l30 30-30 30h-40"/><path fill="none" stroke="#64e7d4" stroke-width="2" d="M675 286h38l18 18-18 18h-38"/></g><g id="typography" font-family="'IBM Plex Mono','JetBrains Mono',monospace"><text x="808" y="182" fill="#ff8e9f" font-size="18" letter-spacing="6">PI EXTENSION / 04</text><text x="800" y="310" fill="#fff5f7" font-size="92" font-weight="700" letter-spacing="-7">pi-sessions</text><text x="808" y="365" fill="#bca9b2" font-size="24" letter-spacing="2">EVERY THREAD. READY TO RESUME.</text></g><g id="metadata" font-family="'IBM Plex Mono',monospace"><path stroke="#ff8e9f" stroke-opacity=".4" d="M808 424h802"/><g fill="#d9cbd1" font-size="15" letter-spacing="2"><text x="808" y="463">BROWSE</text><text x="970" y="463">SEARCH</text><text x="1130" y="463">AUTO-NAME</text><text x="1350" y="463">RESTORE</text><text x="1532" y="463">PROJECTS</text></g><text x="808" y="508" fill="#64e7d4" font-size="14" letter-spacing="4">INDEX / FIND / CONTINUE</text><path fill="#ff8e9f" d="M1642 494v23l22-11.5z"/></g></svg>
